<?xml version="1.0" encoding="utf-8"?>
<!-- Generator: Adobe Illustrator 16.0.0, SVG Export Plug-In . SVG Version: 6.00 Build 0)  -->
<!DOCTYPE svg PUBLIC "-//W3C//DTD SVG 1.1//EN" "http://www.w3.org/Graphics/SVG/1.1/DTD/svg11.dtd">
<svg version="1.1" id="Layer_1" xmlns="http://www.w3.org/2000/svg" xmlns:xlink="http://www.w3.org/1999/xlink" x="0px" y="0px"
	 width="256px" height="256px" viewBox="0 0 256 256" enable-background="new 0 0 256 256" xml:space="preserve">
<rect fill="#FDC006" width="256" height="256"/>
<polygon fill-rule="evenodd" clip-rule="evenodd" fill="#E6AD06" points="128.707,256 198.75,185.958 194.333,48.333 73.875,43.75 
	0,117.625 0,256 "/>
<g>
	<g>
		<g>
			<path fill-rule="evenodd" clip-rule="evenodd" fill="#FFFFFF" d="M144.142,213.281c0-9.553,0-18.73,0-28.252
				c-0.813,0-1.516,0-2.219,0c-20.973,0.001-41.945,0.001-62.917,0.001c-0.667,0-1.335,0.012-2-0.029
				c-2.867-0.181-3.998-1.282-4.037-4.193c-0.064-4.816-0.026-9.634-0.027-14.451c-0.003-9.485-0.004-18.971-0.006-28.457
				c0-0.793,0-1.587,0-2.499c4.8,0,9.354,0,14.179,0c0,11.771,0,23.431,0,35.203c19.064,0,37.855,0,56.976,0
				c0-0.816,0-1.597,0-2.377c-0.012-30.681,0.036-61.36-0.111-92.04c-0.018-3.702,1.066-6.01,4.285-7.912
				c5.094-3.01,9.906-6.493,14.834-9.782c0.469-0.313,0.906-0.67,1.703-1.263c-26.076,0-51.717,0-77.587,0
				c0,11.743,0,23.341,0,35.068c-4.791,0-9.354,0-14.117,0c-0.052-0.632-0.149-1.264-0.149-1.896
				c-0.009-14.081-0.017-28.161-0.003-42.241c0.004-4.503,0.944-5.432,5.514-5.433c39.054-0.009,78.109-0.01,117.163-0.004
				c4.393,0,5.381,0.983,5.383,5.347c0.016,44.02,0.006,88.04,0.063,132.06c0.005,3.366-1.286,5.573-4.294,7.065
				c-16.841,8.353-33.646,16.774-50.468,25.166C145.728,212.648,145.116,212.869,144.142,213.281z"/>
			<path fill-rule="evenodd" clip-rule="evenodd" fill="#FFFFFF" d="M97.244,139.717c0-4.874,0-9.826,0-14.821
				c-8.79,0-33.53,0-42.313,0c0-7.542,0-15.041,0-22.604c8.756,0,33.51,0,42.325,0c0-5.011,0-9.958,0-14.873
				c8.743,8.745,17.471,17.476,26.139,26.147C114.735,122.226,105.992,130.97,97.244,139.717z"/>
		</g>
	</g>
	<circle fill-rule="evenodd" clip-rule="evenodd" fill="#E6AD06" cx="156.333" cy="140.666" r="3.667"/>
</g>
</svg>
